Coordinates
version=1
nRows=34
nColumns=19
inDegrees=yes

Units are S.I. units (second, meters, Newtons, ...)
If the header above contains a line with 'inDegrees', this indicates whether rotational values are in degrees (yes) or radians (no).

endheader
time	pelvis_tilt	pelvis_list	pelvis_rotation	pelvis_tx	pelvis_ty	pelvis_tz	hip_flexion_r	hip_adduction_r	hip_rotation_r	knee_angle_r	knee_angle_r_beta	ankle_angle_r	hip_flexion_l	hip_adduction_l	hip_rotation_l	knee_angle_l	knee_angle_l_beta	ankle_angle_l
     13.50000000	     -2.08019954	      8.89669849	      8.52829251	      2.43218888	      1.03837038	      1.03145769	    -20.02586657	    -11.21071641	    -17.19996498	     77.48685098	      1.35240068	    -26.64810791	     23.85747023	     13.09514861	     -0.75819432	      8.99565817	      0.15700385	      7.94424092
     13.50666667	     -1.83857268	      9.53944017	      9.04571170	      2.43060052	      1.03339751	      1.03125507	    -18.84957849	    -12.00371473	    -17.02276686	     81.40829351	      1.42084276	    -26.37145871	     24.02630669	     13.77770134	     -1.04826314	     12.12873190	      0.21168631	      7.62404210
     13.51333333	     -1.21585122	     10.28378852	      9.56161112	      2.42885789	      1.02842241	      1.03112407	    -18.09376778	    -12.88455297	    -16.95407913	     85.14200514	      1.48600832	    -25.97608262	     23.86227511	     14.47665216	     -1.39773000	     15.64226074	      0.27300895	      7.38128908
     13.52000000	     -1.62028866	     10.51631030	     10.19548287	      2.42683629	      1.02203590	      1.03082990	    -15.89042845	    -13.44861376	    -16.56061808	     89.01521152	      1.55360853	    -25.43422441	     25.03496818	     14.76932411	     -1.69511641	     19.66997558	      0.34330584	      7.16775071
     13.52666667	     -1.59867853	     10.84583991	     10.81790319	      2.42468158	      1.01589550	      1.03065352	    -14.11980173	    -14.06551346	    -16.21748658	     92.67347636	      1.61745729	    -24.80874292	     25.69230973	     15.09574383	     -1.85153581	     23.75702239	      0.41463826	      7.19045813
     13.53333333	     -1.61721933	     11.06566176	     11.44833524	      2.42232632	      1.00964664	      1.03054449	    -12.15068001	    -14.60204479	    -15.76867603	     96.20590962	      1.67910988	    -24.09560819	     26.35602456	     15.32329779	     -1.82823006	     27.87055319	      0.48643292	      7.52939945
     13.54000000	     -0.74762625	     11.69685186	     11.95493224	      2.41993432	      1.00447031	      1.03062604	    -11.22347317	    -15.49667811	    -15.46448814	     99.40360477	      1.73492019	    -23.49530735	     25.78289985	     15.81714203	     -1.66199569	     31.67185466	      0.55277814	      8.31215067
     13.54666667	     -1.68524723	     11.23445545	     12.68529132	      2.41696098	      0.99748250	      1.03046704	     -7.66233822	    -15.48682645	    -14.54366418	    102.81750743	      1.79450403	    -22.52099750	     27.38815044	     15.60208523	     -1.14052505	     35.73682005	      0.62372517	      9.36133625
     13.55333333	     -1.72828196	     11.12466344	     13.27788943	      2.41396427	      0.99186855	      1.03045200	     -5.11497397	    -15.75446049	    -13.75960702	    105.82424438	      1.84698149	    -21.76224915	     27.66695049	     15.60852189	     -0.48625711	     39.31238000	      0.68613047	     10.90389766
     13.56000000	     -0.95177799	     11.48694825	     13.72152275	      2.41101559	      0.98775948	      1.03057182	     -3.55270960	    -16.47055490	    -13.09193742	    108.43426446	      1.89253494	    -21.04473174	     26.60487691	     15.91256991	      0.20706515	     42.26898159	      0.73773290	     12.81817331
     13.56666667	     -1.71688497	     10.73408728	     14.28955194	      2.40762098	      0.98245380	      1.03058703	      0.36807611	    -16.14935363	    -11.92964317	    111.04987282	      1.93818591	    -20.14148287	     27.33661970	     15.43849678	      1.12963347	     45.23619345	      0.78952052	     14.90883154
     13.57333333	     -1.63146735	     10.41432379	     14.66204157	      2.40446122	      0.97892585	      1.03077584	      3.25279670	    -16.18736906	    -10.91088956	    113.17079044	      1.97520291	    -19.28840348	     26.63905407	     15.15232454	      2.00868930	     47.46382589	      0.82840004	     17.21915376
     13.58000000	     -1.50338481	     10.02385636	     14.93188009	      2.40141011	      0.97629415	      1.03102051	      6.20078167	    -16.12388136	     -9.87039354	    114.91667508	      2.00567435	    -18.39724231	     25.57800482	     14.70763551	      2.87592284	     49.14852247	      0.85780354	     19.59707152
     13.58666667	     -0.98323521	      9.84376533	     15.15606372	      2.39883995	      0.97511139	      1.03118902	      8.58255965	    -16.21307360	     -9.00140854	    116.15797006	      2.02733903	    -17.42392906	     23.61206691	     14.34271671	      3.82562225	     50.11640713	      0.87469631	     21.99294107
     13.59333333	     -0.89915130	      9.02254347	     15.02871717	      2.39643866	      0.97427715	      1.03168349	     11.83690184	    -15.52785092	     -7.86391444	    117.06385619	      2.04314973	    -16.46427787	     22.09197219	     13.18814089	      4.44543908	     50.75715357	      0.88587945	     24.13452008
     13.60000000	     -0.57498765	      8.58743129	     15.06890894	      2.39470983	      0.97484975	      1.03164927	     14.43027647	    -15.34974803	     -7.15690585	    117.43467378	      2.04962171	    -15.36153747	     19.74628856	     12.46049352	      5.36297964	     50.59590167	      0.88306507	     26.05937616
     13.60666667	     -0.09604216	      7.70686169	     14.50608934	      2.39355121	      0.97638661	      1.03228673	     17.06852032	    -14.32865456	     -6.18610092	    117.35789212	      2.04828162	    -14.17915186	     17.19380148	     10.86394125	      5.53027516	     50.05240613	      0.87357929	     27.66016145
     13.61333333	      0.28159008	      6.89931990	     13.96118354	      2.39301865	      0.97878697	      1.03254935	     19.55508451	    -13.45689288	     -5.47193365	    116.83441985	      2.03914531	    -12.93907372	     14.40618791	      9.42096976	      5.76402041	     48.91801705	      0.85378046	     28.79931074
     13.62000000	      1.10035989	      6.13634086	     13.17245648	      2.39329608	      0.98264580	      1.03280773	     21.30798204	    -12.46048721	     -4.88112793	    115.78326284	      2.02079916	    -11.69858551	     10.82577036	      7.87197890	      5.76241885	     47.15888018	      0.82307773	     29.34594900
     13.62666667	      1.77591859	      5.21022729	     12.29053245	      2.39419581	      0.98707192	      1.03294391	     23.01268556	    -11.27461179	     -4.46372012	    114.33024351	      1.99543918	    -10.41386226	      7.23546445	      6.21183467	      5.56436588	     44.99883466	      0.78537782	     29.27797372
     13.63333333	      2.39690860	      4.18713887	     11.26639645	      2.39570392	      0.99206737	      1.03305858	     24.54751189	     -9.93525295	     -4.15612434	    112.49488859	      1.96340620	     -9.06303438	      3.53922523	      4.52723612	      5.12549811	     42.46022313	      0.74107069	     28.52711573
     13.64000000	      2.88785972	      3.04438074	     10.20227263	      2.39770279	      0.99753154	      1.03312608	     25.99029453	     -8.49086325	     -4.04819751	    110.30102917	      1.92511613	     -7.90606497	     -0.15021412	      2.82731430	      4.47995612	     39.58592277	      0.69090469	     26.99979119
     13.64666667	      2.90077493	      1.76647004	      8.96049176	      2.40018408	      1.00283042	      1.03338835	     27.78426632	     -6.85409137	     -3.91949581	    107.84896452	      1.88231953	     -6.77091954	     -3.37063187	      1.17953319	      3.44393410	     36.57680242	      0.63838563	     24.71971823
     13.65333333	      3.29574540	      0.63674708	      7.88293375	      2.40297758	      1.00898839	      1.03344862	     28.78057496	     -5.44773461	     -4.11496543	    105.03369477	      1.83318380	     -5.59594495	     -7.14558432	     -0.22317625	      2.54274813	     33.25036813	      0.58032840	     21.59641599
     13.66000000	      2.81287063	     -0.60948354	      6.58128671	      2.40605732	      1.01440013	      1.03393705	     30.64049497	     -3.83737406	     -4.16377057	    102.05384285	      1.78117557	     -4.61854023	     -9.88432048	     -1.50893284	      1.14794590	     30.05670436	      0.52458845	     17.80333233
     13.66666667	      2.71191565	     -1.66965531	      5.44166398	      2.40944487	      1.02048385	      1.03429385	     31.73243756	     -2.50586321	     -4.46719951	     98.76405886	      1.72375801	     -3.62265187	    -13.09737937	     -2.53072176	     -0.15670789	     26.66138738	      0.46532899	     13.31167140
     13.67333333	      1.97150154	     -2.63940996	      4.16373510	      2.41297637	      1.02602979	      1.03501785	     33.37798398	     -1.17854692	     -4.62965619	     95.31430005	      1.66354836	     -2.81101189	    -15.49998154	     -3.28361297	     -1.74776222	     23.44061703	      0.40911595	      8.36750553
     13.68000000	      1.52514600	     -3.48793295	      3.18696467	      2.41664589	      1.03201251	      1.03545911	     34.39175912	     -0.15728492	     -5.14049289	     91.58046602	      1.59838066	     -1.98113633	    -18.12226609	     -3.90545027	     -3.15371587	     20.23594970	      0.35318395	      3.05110479
     13.68666667	      0.42394468	     -4.07607622	      1.94450575	      2.42046037	      1.03719975	      1.03637680	     36.01185103	      0.77797656	     -5.33121833	     87.75642671	      1.53163859	     -1.38531552	    -19.89905664	     -4.10120430	     -4.91206981	     17.28289520	      0.30164343	     -2.20495178
     13.69333333	     -0.30159049	     -4.57673179	      0.97170257	      2.42411805	      1.04275362	      1.03702924	     36.97929831	      1.48252323	     -5.80471744	     83.68717551	      1.46061675	     -0.77402784	    -21.87687515	     -4.23961204	     -6.57258968	     14.53504472	      0.25368439	     -7.39398679
     13.70000000	     -1.28407513	     -4.85197759	      0.00583948	      2.42773513	      1.04776122	      1.03779416	     38.08963883	      1.98576794	     -6.23134659	     79.50692393	      1.38765760	     -0.29454370	    -23.34454433	     -4.12053810	     -8.30542720	     12.18113223	      0.21260086	    -12.08679494
     13.70666667	     -2.26614606	     -4.97161515	     -0.79689593	      2.43119485	      1.05248290	      1.03842548	     39.04550093	      2.26019542	     -6.79127586	     75.18911719	      1.31229766	      0.09702284	    -24.54968170	     -3.88128958	     -9.96328882	     10.26048393	      0.17907923	    -16.12391057
     13.71333333	     -3.13603372	     -4.94965939	     -1.50246823	      2.43436246	      1.05692349	      1.03900284	     39.75410933	      2.37961576	     -7.41047390	     70.75584870	      1.23492252	      0.45645793	    -25.57354208	     -3.53850709	    -11.66189038	      8.91002925	      0.15550935	    -19.39534793
     13.72000000	     -3.96552214	     -4.79072852	     -2.05846040	      2.43720563	      1.06095115	      1.03952193	     40.31339309	      2.32303803	     -8.13861778	     66.24320604	      1.15616205	      0.76001881	    -26.30871687	     -3.15246876	    -13.30978775	      8.22160216	      0.14349403	    -21.77041656
